<?xml version="1.0" standalone="no"?>
<!DOCTYPE svg PUBLIC "-//W3C//DTD SVG 20010904//EN"
 "http://www.w3.org/TR/2001/REC-SVG-20010904/DTD/svg10.dtd">
<svg version="1.0" xmlns="http://www.w3.org/2000/svg"
 width="480.000000pt" height="480.000000pt" viewBox="0 0 480.000000 480.000000"
 preserveAspectRatio="xMidYMid meet">

<g transform="translate(0.000000,480.000000) scale(0.100000,-0.100000)"
fill="#000000" stroke="none">
<path d="M1950 4050 c-91 -4 -193 -11 -227 -15 -64 -7 -82 -20 -40 -28 18 -3
16 -5 -8 -6 l-30 -3 30 -9 c16 -5 124 -11 240 -14 115 -3 280 -7 366 -10 210
-7 1435 -7 1579 0 170 8 226 15 209 26 -10 6 -4 9 19 9 45 0 40 20 -5 21 -21
0 -47 2 -58 4 -11 2 -184 11 -385 19 -380 17 -1366 20 -1690 6z m975 -50 c13
-6 -17 -9 -85 -9 -71 -1 -100 2 -90 9 18 12 147 12 175 0z m-308 -6 c-3 -3
-12 -4 -19 -1 -8 3 -5 6 6 6 11 1 17 -2 13 -5z m76 -1 c-7 -2 -21 -2 -30 0
-10 3 -4 5 12 5 17 0 24 -2 18 -5z m354 1 c-3 -3 -12 -4 -19 -1 -8 3 -5 6 6 6
11 1 17 -2 13 -5z"/>
<path d="M1012 3680 c-185 -34 -380 -143 -516 -291 -342 -370 -424 -1071 -186
-1595 65 -145 192 -302 312 -387 59 -42 165 -91 243 -112 84 -23 328 -31 475
-15 l118 13 11 56 c26 124 23 359 -5 454 -6 21 -44 23 -44 2 0 -8 -4 -15 -9
-15 -5 0 -28 -37 -51 -82 -52 -104 -75 -135 -111 -153 -16 -9 -29 -13 -29 -10
0 3 -18 -2 -40 -11 -31 -13 -63 -15 -143 -12 -94 5 -110 8 -187 45 -212 99
-355 284 -426 548 -22 85 -27 127 -31 277 -6 187 3 282 38 421 74 292 239 513
460 617 118 55 244 62 334 20 56 -27 126 -102 170 -185 62 -114 67 -120 81
-100 34 47 41 284 13 438 -12 62 -15 68 -33 62 -48 -16 -88 -16 -162 -1 -101
21 -215 28 -282 16z m333 -90 c115 -42 82 -52 -40 -12 -36 12 -86 17 -182 17
-116 0 -129 2 -100 12 52 20 249 10 322 -17z m-410 -9 c-3 -5 -22 -15 -43 -22
-56 -18 -151 -67 -207 -107 -32 -22 -43 -27 -30 -13 10 12 49 42 85 65 83 55
214 106 195 77z m539 -20 c3 -5 -3 -11 -14 -14 -20 -5 -26 3 -13 16 9 10 21 9
27 -2z m-824 -2087 c0 -3 -13 4 -30 16 -16 12 -30 24 -30 26 0 3 14 -4 30 -16
17 -12 30 -24 30 -26z m180 -83 c8 -5 62 -14 119 -21 58 -8 99 -16 92 -18 -20
-7 -203 18 -217 28 -6 6 -34 17 -63 25 -28 9 -63 27 -78 40 -25 23 -20 22 52
-11 44 -20 87 -39 95 -43z m385 -10 c-15 -12 -74 -31 -101 -31 -43 0 -25 16
29 27 72 14 83 15 72 4z"/>
<path d="M2145 3106 c-56 -24 -91 -108 -48 -114 17 -3 24 3 29 23 8 33 40 55
79 55 35 0 48 -8 62 -35 20 -39 -16 -85 -66 -85 -37 0 -26 -37 12 -44 71 -13
97 -59 60 -105 -10 -12 -35 -24 -56 -28 -34 -5 -41 -2 -77 36 -25 26 -44 39
-54 35 -24 -9 -19 -31 17 -70 28 -31 41 -37 85 -42 92 -8 152 35 152 110 0 30
-7 46 -29 68 -27 28 -28 30 -11 45 45 41 27 120 -33 148 -42 20 -81 21 -122 3z"/>
<path d="M3225 3107 c-56 -22 -73 -37 -94 -80 -43 -89 -18 -220 51 -271 39
-28 132 -33 178 -9 34 18 80 74 80 99 0 7 -10 14 -22 16 -17 2 -27 -5 -38 -27
-8 -17 -32 -38 -54 -49 -36 -17 -43 -18 -79 -5 -61 21 -82 57 -82 138 0 41 6
79 15 95 31 59 130 76 175 31 14 -13 25 -29 25 -35 0 -5 11 -10 25 -10 53 0
12 77 -55 104 -47 18 -83 19 -125 3z"/>
<path d="M2437 2988 c-7 -135 -22 -198 -49 -206 -15 -4 -18 -15 -18 -68 0 -57
2 -64 20 -64 17 0 20 7 20 40 l0 40 125 0 125 0 0 -40 c0 -36 3 -40 25 -40 24
0 25 3 25 61 0 52 -3 62 -20 66 -19 5 -20 14 -20 169 l0 164 -114 0 -113 0 -6
-122z m183 -63 l0 -145 -84 0 -84 0 14 47 c8 26 17 91 21 145 l6 98 64 0 63 0
0 -145z"/>
<path d="M2770 2920 l0 -190 140 0 140 0 0 25 0 25 -115 0 -116 0 3 63 3 62
103 3 c94 2 102 4 102 22 0 19 -7 20 -105 20 l-105 0 0 60 0 60 110 0 c103 0
110 1 110 20 0 19 -7 20 -135 20 l-135 0 0 -190z"/>
<path d="M3500 2919 l0 -191 103 4 c118 5 150 17 172 65 21 44 13 92 -21 124
-22 21 -37 24 -115 27 l-89 4 0 79 c0 78 0 79 -25 79 l-25 0 0 -191z m179 -19
c39 -11 51 -24 51 -59 0 -46 -26 -61 -107 -61 l-73 0 0 58 c0 32 3 62 7 65 10
10 83 8 122 -3z"/>
<path d="M2350 2567 c-72 -36 -65 -159 10 -183 65 -21 120 23 120 96 0 37 -28
77 -61 89 -39 14 -38 14 -69 -2z m82 -34 c23 -21 24 -89 1 -115 -39 -43 -107
-7 -107 57 0 63 62 98 106 58z"/>
<path d="M2090 2475 c0 -57 4 -95 10 -95 6 0 10 33 11 78 l1 77 26 -77 c14
-43 31 -78 37 -78 6 0 23 35 37 78 l26 77 1 -77 c1 -45 5 -78 11 -78 6 0 11
12 11 28 4 61 1 154 -5 159 -15 15 -33 -11 -55 -78 l-24 -74 -26 78 c-19 58
-29 77 -43 77 -16 0 -18 -10 -18 -95z"/>
<path d="M2510 2475 c0 -78 3 -95 15 -95 12 0 15 16 15 85 l0 85 45 0 c25 0
45 5 45 10 0 6 -27 10 -60 10 l-60 0 0 -95z"/>
<path d="M2660 2495 c0 -62 -3 -77 -21 -93 -17 -16 -18 -20 -5 -25 31 -12 46
21 46 99 l0 74 35 0 35 0 0 -85 c0 -50 4 -85 10 -85 6 0 10 38 10 95 l0 95
-55 0 -55 0 0 -75z"/>
<path d="M2866 2562 c-8 -14 -66 -166 -66 -174 0 -20 22 -5 31 22 10 26 16 30
49 30 33 0 39 -4 49 -30 5 -16 17 -30 25 -30 11 0 6 21 -23 92 -35 87 -52 111
-65 90z m31 -67 c11 -35 11 -35 -19 -35 -25 0 -29 3 -23 18 4 9 10 25 12 35 8
27 19 20 30 -18z"/>
<path d="M3070 2475 l0 -95 53 0 c59 0 87 19 87 58 0 34 -27 52 -76 52 -44 0
-45 1 -42 28 3 25 7 27 51 30 68 4 58 22 -13 22 l-60 0 0 -95z m87 -11 c51
-14 25 -67 -31 -62 -20 2 -32 9 -34 21 -8 42 13 55 65 41z"/>
<path d="M3240 2475 l0 -95 51 0 c69 0 89 12 89 55 0 40 -20 55 -74 55 -35 0
-36 1 -36 40 0 29 -4 40 -15 40 -12 0 -15 -17 -15 -95z m101 -15 c39 -22 10
-60 -45 -60 -23 0 -26 4 -26 35 0 31 3 35 26 35 14 0 34 -5 45 -10z"/>
<path d="M3410 2475 c0 -57 4 -95 10 -95 6 0 10 38 10 95 0 57 -4 95 -10 95
-6 0 -10 -38 -10 -95z"/>
<path d="M3460 2560 c0 -5 14 -10 30 -10 l30 0 0 -85 c0 -69 3 -85 15 -85 12
0 15 16 15 85 l0 85 30 0 c17 0 30 5 30 10 0 6 -32 10 -75 10 -43 0 -75 -4
-75 -10z"/>
<path d="M3640 2475 l0 -95 54 0 c60 0 86 16 86 54 0 34 -31 56 -78 56 l-42 0
0 40 c0 22 -4 40 -10 40 -6 0 -10 -38 -10 -95z m88 -11 c32 -9 30 -52 -2 -60
-36 -9 -60 -1 -64 19 -8 42 13 55 66 41z"/>
<path d="M2080 2069 l0 -221 129 4 c113 3 133 6 158 24 64 48 66 154 4 192
l-29 17 24 28 c31 36 35 79 11 125 -20 42 -56 52 -182 52 l-115 0 0 -221z
m231 153 c28 -24 31 -79 4 -98 -12 -9 -47 -14 -97 -14 l-78 0 0 65 0 65 74 0
c57 0 79 -4 97 -18z m19 -192 c30 -30 27 -83 -6 -109 -22 -17 -41 -21 -105
-21 l-79 0 0 75 0 75 85 0 c72 0 88 -3 105 -20z"/>
<path d="M2595 2278 c-157 -401 -164 -423 -144 -426 36 -6 46 5 69 73 l22 66
91 -3 90 -3 25 -67 c24 -66 26 -68 58 -68 19 0 34 2 34 4 0 1 -40 99 -88 217
-88 212 -89 214 -120 217 -20 2 -34 -2 -37 -10z m70 -141 c16 -45 31 -85 33
-89 2 -5 -28 -8 -67 -8 l-71 0 22 53 c11 28 26 69 32 90 5 20 13 37 16 37 3 0
18 -37 35 -83z"/>
<path d="M2890 2070 l0 -220 235 0 235 0 0 220 0 220 -30 0 -30 0 0 -195 0
-195 -70 0 -70 0 0 195 0 195 -30 0 -30 0 0 -195 0 -195 -75 0 -75 0 0 195 0
195 -30 0 -30 0 0 -220z"/>
<path d="M3498 2088 c-43 -112 -81 -211 -84 -220 -5 -15 0 -18 25 -18 18 0 34
6 36 13 2 6 14 38 25 70 l21 57 89 0 88 0 27 -70 c26 -68 28 -70 61 -70 31 0
33 2 25 23 -5 12 -45 110 -89 217 l-80 195 -34 3 -33 2 -77 -202z m125 100 c8
-24 24 -67 36 -95 l21 -53 -71 0 c-64 0 -70 2 -64 18 4 9 19 52 34 94 14 43
27 78 28 78 0 0 8 -19 16 -42z"/>
<path d="M2090 1625 l0 -125 25 0 c23 0 25 4 25 44 l0 43 50 7 c62 8 90 33 90
79 0 56 -32 77 -118 77 l-72 0 0 -125z m131 69 c20 -24 -1 -48 -45 -52 -35 -3
-36 -2 -36 32 0 34 2 36 34 36 18 0 39 -7 47 -16z"/>
<path d="M2320 1625 l0 -125 95 0 c88 0 95 1 95 20 0 18 -7 20 -70 20 l-70 0
0 35 0 35 65 0 c58 0 65 2 65 20 0 18 -7 20 -65 20 l-65 0 0 30 0 30 70 0 c63
0 70 2 70 20 0 19 -7 20 -95 20 l-95 0 0 -125z"/>
<path d="M2560 1625 l0 -125 25 0 c23 0 25 3 25 50 0 28 4 50 10 50 5 0 21
-22 35 -50 22 -43 29 -50 56 -50 l30 0 -32 60 c-17 33 -35 60 -39 60 -4 0 3
20 14 45 13 28 28 45 39 45 10 0 17 8 17 20 0 14 -7 20 -22 20 -32 0 -42 -9
-67 -57 -31 -62 -41 -62 -41 1 0 53 -1 56 -25 56 l-25 0 0 -125z"/>
<path d="M2790 1649 c0 -92 -2 -101 -20 -106 -11 -3 -20 -14 -20 -24 0 -15 7
-19 35 -19 46 0 55 20 55 124 l0 86 40 0 40 0 0 -105 0 -105 25 0 25 0 0 125
0 125 -90 0 -90 0 0 -101z"/>
<path d="M3052 1643 c-22 -60 -44 -116 -48 -125 -5 -14 -1 -18 20 -18 21 0 29
7 37 30 10 28 14 30 60 30 47 0 51 -2 60 -30 9 -24 17 -30 39 -30 l28 0 -50
125 c-47 117 -52 125 -77 125 -25 0 -30 -8 -69 -107z m97 -35 c1 -5 -12 -8
-29 -8 -35 0 -35 -1 -14 48 l16 37 13 -35 c8 -19 14 -38 14 -42z"/>
<path d="M3270 1625 l0 -125 25 0 c25 0 25 1 25 92 0 50 3 89 6 86 3 -3 14
-45 26 -92 19 -83 21 -87 46 -84 23 3 27 11 48 93 l22 90 1 -92 c1 -92 1 -93
26 -93 l25 0 0 125 0 125 -39 0 -39 0 -17 -67 c-24 -91 -31 -102 -39 -67 -4
16 -14 53 -22 82 -14 52 -15 52 -54 52 l-40 0 0 -125z"/>
<path d="M3633 1733 c-3 -10 -25 -66 -49 -125 l-42 -108 28 0 c22 0 30 6 39
31 10 29 13 30 58 27 41 -3 50 -7 61 -30 9 -20 21 -28 38 -28 30 0 31 -6 -26
137 -42 106 -47 113 -73 113 -17 0 -30 -6 -34 -17z m52 -89 c19 -46 20 -44
-15 -44 -16 0 -30 4 -30 9 0 12 21 71 26 71 2 0 11 -16 19 -36z"/>
</g>
</svg>
